<?xml version="1.0" encoding="UTF-8" standalone="no"?>
<svg width="290px" height="65px" viewBox="0 0 290 65" version="1.1" xmlns="http://www.w3.org/2000/svg" xmlns:xlink="http://www.w3.org/1999/xlink">
    <!-- Generator: Sketch 40.3 (33839) - http://www.bohemiancoding.com/sketch -->
    <title>opengist</title>
    <desc>Created with Sketch.</desc>
    <defs></defs>
    <g id="Page-1" stroke="none" stroke-width="1" fill="none" fill-rule="evenodd">
        <g id="opengist">
            <path d="M288.488,44.496 C289.021336,45.0933363 289.288,45.8613286 289.288,46.8 C289.288,47.7386714 288.936004,48.5066637 288.232,49.104 C287.527996,49.7013363 286.621339,50 285.512,50 L284.36,50 C282.269323,50 280.360009,49.4560054 278.632,48.368 C276.903991,47.2799946 275.549338,45.7973427 274.568,43.92 C273.586662,42.0426573 273.096,39.9306784 273.096,37.584 L273.096,21.776 L270.152,21.776 C269.255996,21.776 268.530669,21.5200026 267.976,21.008 C267.421331,20.4959974 267.144,19.8560038 267.144,19.088 C267.144,18.2346624 267.421331,17.5520026 267.976,17.04 C268.530669,16.5279974 269.255996,16.272 270.152,16.272 L273.096,16.272 L273.096,7.056 C273.096,6.11732864 273.394664,5.34933632 273.992,4.752 C274.589336,4.15466368 275.357329,3.856 276.296,3.856 C277.234671,3.856 278.002664,4.15466368 278.6,4.752 C279.197336,5.34933632 279.496,6.11732864 279.496,7.056 L279.496,16.272 L284.936,16.272 C285.832004,16.272 286.557331,16.5279974 287.112,17.04 C287.666669,17.5520026 287.944,18.2346624 287.944,19.088 C287.944,19.8560038 287.666669,20.4959974 287.112,21.008 C286.557331,21.5200026 285.832004,21.776 284.936,21.776 L279.496,21.776 L279.496,37.584 C279.496,39.2906752 279.965329,40.7199942 280.904,41.872 C281.842671,43.0240058 282.99466,43.6 284.36,43.6 L286.536,43.6 C287.304004,43.6 287.954664,43.8986637 288.488,44.496 L288.488,44.496 Z" id="Path" fill="#4B4D78"></path>
            <path d="M235.4,45.392 C234.845331,44.8373306 234.568,44.1760038 234.568,43.408 C234.568,42.3839949 234.994662,41.5520032 235.848,40.912 C236.658671,40.3146637 237.40533,40.016 238.088,40.016 C238.941338,40.016 239.751996,40.3999962 240.52,41.168 C241.330671,42.0640045 242.546659,42.8426634 244.168,43.504 C245.789341,44.1653366 247.517324,44.496 249.352,44.496 C251.784012,44.496 253.671993,44.0906707 255.016,43.28 C256.360007,42.4693293 257.032,41.3813402 257.032,40.016 C257.032,38.6933267 256.370673,37.594671 255.048,36.72 C253.725327,35.845329 251.485349,35.1093363 248.328,34.512 C245.956826,34.0550549 243.928823,33.4479788 242.243989,32.690769 C238.107982,30.8319362 236.04,28.0683586 236.04,24.4 C236.04,22.3093229 236.65866,20.5386739 237.896,19.088 C239.13334,17.6373261 240.754657,16.549337 242.76,15.824 C244.765343,15.098663 246.898655,14.736 249.16,14.736 C251.933347,14.736 254.418656,15.1839955 256.616,16.08 C258.813344,16.9760045 260.551994,18.2133254 261.832,19.792 C262.386669,20.4746701 262.664,21.1573299 262.664,21.84 C262.664,22.565337 262.301337,23.2266637 261.576,23.824 C261.106664,24.165335 260.509337,24.336 259.784,24.336 C258.674661,24.336 257.672004,23.9306707 256.776,23.12 C255.709328,22.1386618 254.578673,21.4453354 253.384,21.04 C252.189327,20.6346646 250.738675,20.432 249.032,20.432 C247.069324,20.432 245.458673,20.7626634 244.2,21.424 C242.941327,22.0853366 242.312,23.0133274 242.312,24.208 C242.312,25.0613376 242.525331,25.7759971 242.952,26.352 C243.378669,26.9280029 244.189327,27.4613309 245.384,27.952 C246.578673,28.4426691 248.306655,28.9226643 250.568,29.392 C255.21869,30.3306714 258.514657,31.6319917 260.456,33.296 C262.397343,34.9600083 263.368,37.1146534 263.368,39.76 C263.368,41.7226765 262.834672,43.503992 261.768,45.104 C260.701328,46.704008 259.133344,47.9626621 257.064,48.88 C254.994656,49.7973379 252.509348,50.256 249.608,50.256 C246.706652,50.256 243.976013,49.8080045 241.416,48.912 C238.855987,48.0159955 236.850674,46.8426739 235.4,45.392 Z" id="Path" fill="#4B4D78"></path>
            <path d="M218.472,8.048 C217.639996,7.21599584 217.224,6.22400576 217.224,5.072 C217.224,3.91999424 217.639996,2.92800416 218.472,2.096 C219.304004,1.26399584 220.295994,0.848 221.448,0.848 C222.600006,0.848 223.591996,1.26399584 224.424,2.096 C225.256004,2.92800416 225.672,3.91999424 225.672,5.072 C225.672,6.22400576 225.256004,7.21599584 224.424,8.048 C223.591996,8.88000416 222.600006,9.296 221.448,9.296 C220.295994,9.296 219.304004,8.88000416 218.472,8.048 L218.472,8.048 Z" id="Path" fill="#4B4D78"></path>
            <path d="M219.112,49.072 C218.49333,48.4533302 218.184,47.6746714 218.184,46.736 L218.184,18.256 C218.184,17.2746618 218.49333,16.4853363 219.112,15.888 C219.73067,15.2906637 220.509329,14.992 221.448,14.992 C222.429338,14.992 223.218664,15.2906637 223.816,15.888 C224.413336,16.4853363 224.712,17.2746618 224.712,18.256 L224.712,46.736 C224.712,47.6746714 224.413336,48.4533302 223.816,49.072 C223.218664,49.6906698 222.429338,50 221.448,50 C220.509329,50 219.73067,49.6906698 219.112,49.072 L219.112,49.072 Z" id="Path" fill="#4B4D78"></path>
            <path d="M199.272,17.008 C201.93868,18.5226742 204.029326,20.6239866 205.544,23.312 C207.058674,26.0000134 207.816,29.0719827 207.816,32.528 L207.816,46.352 C207.816,49.7226835 207.069341,52.7946528 205.576,55.568 C204.082659,58.3413472 201.981347,60.527992 199.272,62.128 C196.562653,63.728008 193.50135,64.528 190.088,64.528 C187.015985,64.528 184.157347,63.9200061 181.512,62.704 C178.866653,61.4879939 176.648009,59.7493446 174.856,57.488 C174.386664,56.8906637 174.152,56.2933363 174.152,55.696 C174.152,54.7999955 174.599996,54.0320032 175.496,53.392 C176.093336,53.0079981 176.690664,52.816 177.288,52.816 C178.354672,52.816 179.22933,53.2639955 179.912,54.16 C181.064006,55.6533408 182.514658,56.7946627 184.264,57.584 C186.013342,58.3733373 187.997322,58.768 190.216,58.768 C192.306677,58.768 194.205325,58.2666717 195.912,57.264 C197.618675,56.2613283 198.983995,54.789343 200.008,52.848 C201.032005,50.906657 201.544,48.5920134 201.544,45.904 L201.544,42.768 C200.221327,45.1146784 198.472011,46.9493267 196.296,48.272 C194.119989,49.5946733 191.66668,50.256 188.936,50.256 C185.778651,50.256 182.952012,49.4986742 180.456,47.984 C177.959988,46.4693258 176.018674,44.3680134 174.632,41.68 C173.245326,38.9919866 172.552,35.9413504 172.552,32.528 C172.552,29.0719827 173.298659,26.0000134 174.792,23.312 C176.285341,20.6239866 178.375987,18.5226742 181.064,17.008 C183.752013,15.4933258 186.80265,14.736 190.216,14.736 C193.586684,14.736 196.60532,15.4933258 199.272,17.008 Z M196.072,42.96 C197.800009,41.9359949 199.143995,40.5173424 200.104,38.704 C201.064005,36.8906576 201.544,34.8320115 201.544,32.528 C201.544,30.2239885 201.064005,28.1546758 200.104,26.32 C199.143995,24.4853242 197.800009,23.0560051 196.072,22.032 C194.343991,21.0079949 192.392011,20.496 190.216,20.496 C188.039989,20.496 186.088009,21.0079949 184.36,22.032 C182.631991,23.0560051 181.277338,24.4853242 180.296,26.32 C179.314662,28.1546758 178.824,30.2239885 178.824,32.528 C178.824,34.8320115 179.314662,36.8906576 180.296,38.704 C181.277338,40.5173424 182.631991,41.9359949 184.36,42.96 C186.088009,43.9840051 188.039989,44.496 190.216,44.496 C192.392011,44.496 194.343991,43.9840051 196.072,42.96 Z" id="Combined-Shape" fill="#4B4D78"></path>
            <path d="M156.04,16.592 C158.386678,17.8720064 160.221327,19.7386544 161.544,22.192 C162.866673,24.6453456 163.528,27.5999827 163.528,31.056 L163.528,46.8 C163.528,47.7386714 163.21867,48.5173302 162.6,49.136 C161.98133,49.7546698 161.202671,50.064 160.264,50.064 C159.325329,50.064 158.54667,49.7546698 157.928,49.136 C157.30933,48.5173302 157,47.7386714 157,46.8 L157,31.056 C157,27.5999827 156.072009,24.9866755 154.216,23.216 C152.359991,21.4453245 149.896015,20.56 146.824,20.56 C145.031991,20.56 143.400007,20.922663 141.928,21.648 C140.455993,22.373337 139.304004,23.3546605 138.472,24.592 C137.639996,25.8293395 137.224,27.2159923 137.224,28.752 L137.224,46.8 C137.224,47.7386714 136.925336,48.5173302 136.328,49.136 C135.730664,49.7546698 134.941338,50.064 133.96,50.064 C133.021329,50.064 132.24267,49.7546698 131.624,49.136 C131.00533,48.5173302 130.696,47.7386714 130.696,46.8 L130.696,18.256 C130.696,17.2746618 131.00533,16.4853363 131.624,15.888 C132.24267,15.2906637 133.021329,14.992 133.96,14.992 C134.941338,14.992 135.730664,15.2906637 136.328,15.888 C136.925336,16.4853363 137.224,17.2746618 137.224,18.256 L137.224,18.96 C138.58934,17.5946598 140.210657,16.5386704 142.088,15.792 C143.965343,15.0453296 145.970656,14.672 148.104,14.672 C151.048015,14.672 153.693322,15.3119936 156.04,16.592 L156.04,16.592 Z" id="Path" fill="#CBCBCB"></path>
            <path d="M121.544,33.968 C120.989331,34.501336 120.285338,34.768 119.432,34.768 L95.112,34.768 C95.5813357,37.7546816 96.9359888,40.1653242 99.176,42 C101.416011,43.8346758 104.157317,44.752 107.4,44.752 C108.680006,44.752 110.013326,44.5173357 111.4,44.048 C112.786674,43.5786643 113.927996,43.0026701 114.824,42.32 C115.421336,41.8506643 116.125329,41.616 116.936,41.616 C117.746671,41.616 118.386664,41.8293312 118.856,42.256 C119.624004,42.8960032 120.008,43.6213293 120.008,44.432 C120.008,45.2000038 119.66667,45.8399974 118.984,46.352 C117.533326,47.5040058 115.730677,48.442663 113.576,49.168 C111.421323,49.893337 109.362676,50.256 107.4,50.256 C103.901316,50.256 100.765347,49.4986742 97.992,47.984 C95.2186528,46.4693258 93.0533411,44.3680134 91.496,41.68 C89.9386589,38.9919866 89.16,35.9413504 89.16,32.528 C89.16,29.1146496 89.8959926,26.0533469 91.368,23.344 C92.8400074,20.6346531 94.8879869,18.5226742 97.512,17.008 C100.136013,15.4933258 103.111983,14.736 106.44,14.736 C109.72535,14.736 112.562655,15.4613261 114.952,16.912 C117.341345,18.3626739 119.175994,20.3893203 120.456,22.992 C121.736006,25.5946797 122.376,28.5813165 122.376,31.952 C122.376,32.7626707 122.098669,33.434664 121.544,33.968 Z M98.856,22.8 C96.914657,24.5066752 95.6880026,26.789319 95.176,29.648 L116.488,29.648 C116.103998,26.789319 115.037342,24.5066752 113.288,22.8 C111.538658,21.0933248 109.256014,20.24 106.44,20.24 C103.325318,20.24 100.797343,21.0933248 98.856,22.8 Z" id="Combined-Shape" fill="#CBCBCB"></path>
            <path d="M72.552,17.072 C75.2613469,18.6293411 77.3839923,20.7626531 78.92,23.472 C80.4560077,26.1813469 81.224,29.1999834 81.224,32.528 C81.224,35.8560166 80.5093405,38.8746531 79.08,41.584 C77.6506595,44.2933469 75.6880125,46.4159923 73.192,47.952 C70.6959875,49.4880077 67.9120154,50.256 64.84,50.256 C62.365321,50.256 60.061344,49.7440051 57.928,48.72 C55.794656,47.6959949 53.9813408,46.2666758 52.488,44.432 L52.488,61.712 C52.488,62.6933382 52.1893363,63.4826637 51.592,64.08 C50.9946637,64.6773363 50.2053382,64.976 49.224,64.976 C48.2853286,64.976 47.5066698,64.6773363 46.888,64.08 C46.2693302,63.4826637 45.96,62.6933382 45.96,61.712 L45.96,32.528 C45.96,29.1999834 46.7386589,26.1813469 48.296,23.472 C49.8533411,20.7626531 51.96532,18.6293411 54.632,17.072 C57.29868,15.5146589 60.2746502,14.736 63.56,14.736 C66.8453498,14.736 69.8426531,15.5146589 72.552,17.072 Z M69.352,42.928 C71.0800086,41.8826614 72.4453283,40.4533424 73.448,38.64 C74.4506717,36.8266576 74.952,34.7893446 74.952,32.528 C74.952,30.2666554 74.4506717,28.2186758 73.448,26.384 C72.4453283,24.5493242 71.0800086,23.1093386 69.352,22.064 C67.6239914,21.0186614 65.693344,20.496 63.56,20.496 C61.426656,20.496 59.4960086,21.0186614 57.768,22.064 C56.0399914,23.1093386 54.6853382,24.5493242 53.704,26.384 C52.7226618,28.2186758 52.232,30.2666554 52.232,32.528 C52.232,34.7893446 52.7226618,36.8266576 53.704,38.64 C54.6853382,40.4533424 56.0399914,41.8826614 57.768,42.928 C59.4960086,43.9733386 61.426656,44.496 63.56,44.496 C65.693344,44.496 67.6239914,43.9733386 69.352,42.928 Z" id="Combined-Shape" fill="#CBCBCB"></path>
            <path d="M9.48,47.984 C6.79198656,46.4693258 4.7013408,44.3680134 3.208,41.68 C1.7146592,38.9919866 0.968,35.9413504 0.968,32.528 C0.968,29.0719827 1.7146592,26.0000134 3.208,23.312 C4.7013408,20.6239866 6.79198656,18.5226742 9.48,17.008 C12.1680134,15.4933258 15.2186496,14.736 18.632,14.736 C22.0026835,14.736 25.02132,15.4933258 27.688,17.008 C30.35468,18.5226742 32.4453258,20.6239866 33.96,23.312 C35.4746742,26.0000134 36.232,29.0719827 36.232,32.528 C36.232,35.9413504 35.4853408,38.9919866 33.992,41.68 C32.4986592,44.3680134 30.41868,46.4693258 27.752,47.984 C25.08532,49.4986742 22.0453504,50.256 18.632,50.256 C15.2186496,50.256 12.1680134,49.4986742 9.48,47.984 Z M24.488,42.96 C26.2160086,41.9359949 27.5599952,40.5173424 28.52,38.704 C29.4800048,36.8906576 29.96,34.8320115 29.96,32.528 C29.96,30.2239885 29.4800048,28.1546758 28.52,26.32 C27.5599952,24.4853242 26.2160086,23.0560051 24.488,22.032 C22.7599914,21.0079949 20.8080109,20.496 18.632,20.496 C16.4559891,20.496 14.5040086,21.0079949 12.776,22.032 C11.0479914,23.0560051 9.69333824,24.4853242 8.712,26.32 C7.73066176,28.1546758 7.24,30.2239885 7.24,32.528 C7.24,34.8320115 7.73066176,36.8906576 8.712,38.704 C9.69333824,40.5173424 11.0479914,41.9359949 12.776,42.96 C14.5040086,43.9840051 16.4559891,44.496 18.632,44.496 C20.8080109,44.496 22.7599914,43.9840051 24.488,42.96 Z" id="Combined-Shape" fill="#CBCBCB"></path>
        </g>
    </g>
</svg>